<?xml version="1.0" encoding="utf-8"?>
<!-- Generator: Adobe Illustrator 23.0.3, SVG Export Plug-In . SVG Version: 6.00 Build 0)  -->
<svg version="1.1" id="Capa_1" xmlns="http://www.w3.org/2000/svg" xmlns:xlink="http://www.w3.org/1999/xlink" x="0px" y="0px"
	 viewBox="0 0 95.9 96.1" style="enable-background:new 0 0 95.9 96.1;" xml:space="preserve">
<style type="text/css">
	.st0{fill:#FFFFFF;}
</style>
<g>
	<g>
		<g>
			<path class="st0" d="M71,25.1c-4.7-4.7-12.3-4.7-17,0l-9.2,9.2c-0.4,0.4-0.4,1,0,1.4c0.4,0.4,1,0.4,1.4,0l9.2-9.2
				c1.9-1.9,4.4-2.9,7.1-2.9c2.7,0,5.2,1,7.1,2.9c1.9,1.9,2.9,4.4,2.9,7.1s-1,5.2-2.9,7.1l-12,12c-3.9,3.9-10.2,3.9-14.1,0
				c-0.4-0.4-1-0.4-1.4,0c-0.4,0.4-0.4,1,0,1.4c2.3,2.3,5.4,3.5,8.5,3.5s6.1-1.2,8.5-3.5l12-12c2.3-2.3,3.5-5.3,3.5-8.5
				S73.2,27.3,71,25.1z"/>
		</g>
		<g>
			<path class="st0" d="M48.3,61.8l-7.8,7.8c-1.9,1.9-4.4,2.9-7.1,2.9s-5.2-1-7.1-2.9c-3.9-3.9-3.9-10.2,0-14.1l11.3-11.3
				c3.9-3.9,10.2-3.9,14.1,0c0.4,0.4,1,0.4,1.4,0c0.4-0.4,0.4-1,0-1.4c-4.7-4.7-12.3-4.7-17,0L25,54.1c-2.3,2.3-3.5,5.3-3.5,8.5
				c0,3.2,1.2,6.2,3.5,8.5c2.3,2.3,5.3,3.5,8.5,3.5c3.2,0,6.2-1.2,8.5-3.5l7.8-7.8c0.4-0.4,0.4-1,0-1.4
				C49.3,61.5,48.7,61.5,48.3,61.8z"/>
		</g>
		<g>
			<path class="st0" d="M55.5,65.6c-0.6,0-1,0.4-1,1v6c0,0.6,0.4,1,1,1s1-0.4,1-1v-6C56.5,66,56,65.6,55.5,65.6z"/>
		</g>
		<g>
			<path class="st0" d="M59.9,63.9c-0.4-0.4-1-0.4-1.4,0c-0.4,0.4-0.4,1,0,1.4l4.2,4.2c0.2,0.2,0.5,0.3,0.7,0.3s0.5-0.1,0.7-0.3
				c0.4-0.4,0.4-1,0-1.4L59.9,63.9z"/>
		</g>
		<g>
			<path class="st0" d="M66.5,59.6h-6c-0.6,0-1,0.4-1,1s0.4,1,1,1h6c0.6,0,1-0.4,1-1S67,59.6,66.5,59.6z"/>
		</g>
		<g>
			<path class="st0" d="M37.5,32.6c0.6,0,1-0.4,1-1v-6c0-0.6-0.4-1-1-1c-0.6,0-1,0.4-1,1v6C36.5,32.1,36.9,32.6,37.5,32.6z"/>
		</g>
		<g>
			<path class="st0" d="M33,34.3c0.2,0.2,0.5,0.3,0.7,0.3s0.5-0.1,0.7-0.3c0.4-0.4,0.4-1,0-1.4l-4.2-4.2c-0.4-0.4-1-0.4-1.4,0
				c-0.4,0.4-0.4,1,0,1.4L33,34.3z"/>
		</g>
		<g>
			<path class="st0" d="M26.5,38.6h6c0.6,0,1-0.4,1-1c0-0.6-0.4-1-1-1h-6c-0.6,0-1,0.4-1,1S25.9,38.6,26.5,38.6z"/>
		</g>
	</g>
	<g>
		<path class="st0" d="M48,94.6c-25.7,0-46.5-20.9-46.5-46.5C1.4,22.4,22.3,1.5,48,1.5c25.7,0,46.5,20.9,46.5,46.5
			C94.5,73.7,73.6,94.6,48,94.6z M48,3.5c-24.6,0-44.5,20-44.5,44.5s20,44.5,44.5,44.5c24.6,0,44.5-20,44.5-44.5S72.5,3.5,48,3.5z"
			/>
	</g>
</g>
</svg>
